<?xml version="1.0" standalone="no"?>
<!DOCTYPE svg PUBLIC "-//W3C//DTD SVG 20010904//EN"
 "http://www.w3.org/TR/2001/REC-SVG-20010904/DTD/svg10.dtd">
<svg version="1.0" xmlns="http://www.w3.org/2000/svg"
 width="262.000000pt" height="262.000000pt" viewBox="0 0 262.000000 262.000000"
 preserveAspectRatio="xMidYMid meet">
<metadata>
Created by potrace 1.14, written by Peter Selinger 2001-2017
</metadata>
<g transform="translate(0.000000,262.000000) scale(0.100000,-0.100000)"
fill="#000000" stroke="none">
<path d="M297 2225 c-125 -217 -227 -399 -227 -405 0 -11 207 -375 256 -452
13 -21 24 -45 24 -54 0 -8 -33 -73 -74 -142 -40 -70 -83 -143 -94 -162 -11
-19 -43 -75 -71 -123 -28 -49 -51 -90 -51 -93 0 -2 56 -101 125 -220 69 -118
137 -236 151 -262 14 -26 60 -104 101 -174 l75 -128 475 2 474 3 31 55 c16 30
37 66 46 80 9 14 24 39 33 55 17 32 26 46 128 224 l64 111 172 0 171 0 39 68
c21 37 70 121 109 187 39 66 71 122 71 125 0 3 32 59 71 125 78 131 112 190
143 248 l21 38 -69 117 c-68 117 -204 351 -246 427 -69 122 -128 221 -136 230
-6 6 -82 10 -187 10 l-177 0 -70 121 c-38 67 -104 180 -145 252 l-75 131 -465
1 -465 0 -228 -395z"/>
</g>
</svg>
